<?xml version="1.0" encoding="UTF-8" standalone="no"?>
<!-- Created with Inkscape (http://www.inkscape.org/) -->

<svg
   width="64mm"
   height="64mm"
   viewBox="0 0 64 64"
   version="1.1"
   id="svg1"
   inkscape:version="1.4 (e7c3feb100, 2024-10-09)"
   sodipodi:docname="palo_action.svg"
   xml:space="preserve"
   inkscape:export-filename="palo_explore_32.png"
   inkscape:export-xdpi="12.7"
   inkscape:export-ydpi="12.7"
   xmlns:inkscape="http://www.inkscape.org/namespaces/inkscape"
   xmlns:sodipodi="http://sodipodi.sourceforge.net/DTD/sodipodi-0.dtd"
   xmlns="http://www.w3.org/2000/svg"
   xmlns:svg="http://www.w3.org/2000/svg"><sodipodi:namedview
     id="namedview1"
     pagecolor="#ffffff"
     bordercolor="#666666"
     borderopacity="1.0"
     inkscape:showpageshadow="2"
     inkscape:pageopacity="0.0"
     inkscape:pagecheckerboard="0"
     inkscape:deskcolor="#d1d1d1"
     inkscape:document-units="mm"
     inkscape:zoom="2.697244"
     inkscape:cx="103.99504"
     inkscape:cy="125.86922"
     inkscape:window-width="1920"
     inkscape:window-height="1012"
     inkscape:window-x="0"
     inkscape:window-y="0"
     inkscape:window-maximized="1"
     inkscape:current-layer="layer1" /><defs
     id="defs1"><inkscape:perspective
       sodipodi:type="inkscape:persp3d"
       inkscape:vp_x="0 : 0 : 1"
       inkscape:vp_y="0 : 1000 : 0"
       inkscape:vp_z="63.999998 : 0 : 1"
       inkscape:persp3d-origin="47.26893 : 3.0435153 : 1"
       id="perspective1" /></defs><g
     inkscape:label="Calque 1"
     inkscape:groupmode="layer"
     id="layer1"><g
       id="g15"
       transform="matrix(0.96844444,0,0,0.96844444,1.012244,1.0134502)"><path
         id="rect14-2"
         style="fill:#916f6f;fill-rule:evenodd;stroke-width:0.25676;stroke-linecap:round;stroke-linejoin:bevel;stroke-opacity:0.5;paint-order:markers stroke fill"
         d="M 31.844568,0.13229167 4.3930135,16.101343 31.844568,32.071427 32.000114,31.980477 32.15566,32.071427 59.607214,16.102376 32.15566,0.13229167 32.000114,0.22272542 Z" /><path
         id="rect14-2-7"
         style="fill:#6c5353;fill-rule:evenodd;stroke-width:0.256759;stroke-linecap:round;stroke-linejoin:bevel;stroke-opacity:0.5;paint-order:markers stroke fill"
         d="m 59.451152,16.10186 -27.451038,15.969051 0.07803,0.04547 -0.07803,0.04548 v 31.757752 l 0.155546,0.09095 27.451554,-15.969568 -0.07803,-0.04548 0.07803,-0.04547 V 16.192293 Z" /><path
         id="rect14-2-4-1"
         style="fill:#c8b7b7;fill-rule:evenodd;stroke-width:0.256759;stroke-linecap:round;stroke-linejoin:bevel;stroke-opacity:0.5;paint-order:markers stroke fill"
         d="m 4.5485596,16.10186 -0.1555461,0.09043 v 31.757752 l 0.077515,0.04547 -0.077515,0.04496 27.4515545,15.969567 0.155546,-0.09043 V 32.161861 l -0.07752,-0.04496 0.07752,-0.04548 z" /><path
         id="rect14-2-4"
         style="fill:none;fill-rule:evenodd;stroke:#6c5353;stroke-width:1.157;stroke-linecap:round;stroke-linejoin:bevel;stroke-dasharray:none;stroke-opacity:1;paint-order:markers stroke fill"
         d="M 31.922599,0.17725733 4.4710445,16.146309 l 0.07803,0.04547 -0.07803,0.04547 v 31.757752 l 0.07752,0.04547 -0.07752,0.04496 27.4515555,15.969567 0.155546,-0.09043 0.155546,0.09095 27.451554,-15.969568 -0.07803,-0.04548 0.07803,-0.04547 V 16.237259 l -0.07752,-0.04496 0.07752,-0.04496 -27.451554,-15.97008467 -0.155546,0.0904338 z"
         sodipodi:nodetypes="ccccccccccccccccccc" /></g><path
       style="fill:#ffffff;stroke-width:0.436466"
       d="m 43.535094,55.485359 c -0.41859,0.02972 -0.721715,-0.28076 -0.721715,-0.739254 0,-0.172287 0.567193,-3.018244 1.260428,-6.324349 0.693235,-3.306103 1.260427,-6.047057 1.260427,-6.091008 0,-0.04395 -1.798406,1.161622 -3.996459,2.67905 -4.341827,2.997384 -4.561393,3.1207 -5.042107,2.831823 -0.38366,-0.230554 -0.394834,-0.677733 -0.0846,-3.385104 0.392068,-3.421449 1.071214,-9.30651 1.201608,-10.412397 0.13391,-1.135706 0.301238,-1.607168 0.80835,-2.277599 0.404036,-0.534159 0.479378,-0.590479 5.165268,-3.861178 3.077232,-2.147873 4.899191,-3.37553 5.163158,-3.479058 0.574264,-0.225178 0.925633,-0.04416 0.991178,0.510632 0.04674,0.395644 -0.122699,1.066917 -1.149594,4.554323 -0.66243,2.249654 -1.239039,4.20329 -1.281353,4.341411 -0.07139,0.233026 0.21079,0.05501 3.914995,-2.469948 3.894451,-2.654633 4.003782,-2.72283 4.477369,-2.792765 0.611322,-0.09028 0.946863,0.304455 0.946863,1.113902 0,0.551884 -0.07012,0.739034 -1.223036,3.263975 -0.672671,1.473186 -1.385592,3.026421 -1.584269,3.451633 -0.198678,0.425213 -2.028225,4.385492 -4.065662,8.80062 -2.037437,4.415127 -3.786647,8.197806 -3.887135,8.405954 -0.437355,0.90593 -1.499638,1.832881 -2.153721,1.879338 z"
       id="path15" /></g></svg>
