<?xml version="1.0" encoding="UTF-8" standalone="no"?>
<!-- Created with Inkscape (http://www.inkscape.org/) -->

<svg
   width="64mm"
   height="64mm"
   viewBox="0 0 64 64"
   version="1.1"
   id="svg1"
   inkscape:version="1.4 (e7c3feb100, 2024-10-09)"
   sodipodi:docname="palo_explore.svg"
   xml:space="preserve"
   inkscape:export-filename="palo_connect_80.png"
   inkscape:export-xdpi="31.75"
   inkscape:export-ydpi="31.75"
   xmlns:inkscape="http://www.inkscape.org/namespaces/inkscape"
   xmlns:sodipodi="http://sodipodi.sourceforge.net/DTD/sodipodi-0.dtd"
   xmlns="http://www.w3.org/2000/svg"
   xmlns:svg="http://www.w3.org/2000/svg"><sodipodi:namedview
     id="namedview1"
     pagecolor="#ffffff"
     bordercolor="#666666"
     borderopacity="1.0"
     inkscape:showpageshadow="2"
     inkscape:pageopacity="0.0"
     inkscape:pagecheckerboard="0"
     inkscape:deskcolor="#d1d1d1"
     inkscape:document-units="mm"
     inkscape:zoom="2.697244"
     inkscape:cx="103.99504"
     inkscape:cy="125.86922"
     inkscape:window-width="1920"
     inkscape:window-height="1012"
     inkscape:window-x="0"
     inkscape:window-y="0"
     inkscape:window-maximized="1"
     inkscape:current-layer="layer1" /><defs
     id="defs1"><inkscape:perspective
       sodipodi:type="inkscape:persp3d"
       inkscape:vp_x="0 : 0 : 1"
       inkscape:vp_y="0 : 1000 : 0"
       inkscape:vp_z="63.999998 : 0 : 1"
       inkscape:persp3d-origin="47.26893 : 3.0435153 : 1"
       id="perspective1" /></defs><g
     inkscape:label="Calque 1"
     inkscape:groupmode="layer"
     id="layer1"><g
       id="g15"
       transform="matrix(0.96844444,0,0,0.96844444,1.012244,1.0134502)"><path
         id="rect14-2"
         style="fill:#916f6f;fill-rule:evenodd;stroke-width:0.25676;stroke-linecap:round;stroke-linejoin:bevel;stroke-opacity:0.5;paint-order:markers stroke fill"
         d="M 31.844568,0.13229167 4.3930135,16.101343 31.844568,32.071427 32.000114,31.980477 32.15566,32.071427 59.607214,16.102376 32.15566,0.13229167 32.000114,0.22272542 Z" /><path
         id="rect14-2-7"
         style="fill:#6c5353;fill-rule:evenodd;stroke-width:0.256759;stroke-linecap:round;stroke-linejoin:bevel;stroke-opacity:0.5;paint-order:markers stroke fill"
         d="m 59.451152,16.10186 -27.451038,15.969051 0.07803,0.04547 -0.07803,0.04548 v 31.757752 l 0.155546,0.09095 27.451554,-15.969568 -0.07803,-0.04548 0.07803,-0.04547 V 16.192293 Z" /><path
         id="rect14-2-4-1"
         style="fill:#c8b7b7;fill-rule:evenodd;stroke-width:0.256759;stroke-linecap:round;stroke-linejoin:bevel;stroke-opacity:0.5;paint-order:markers stroke fill"
         d="m 4.5485596,16.10186 -0.1555461,0.09043 v 31.757752 l 0.077515,0.04547 -0.077515,0.04496 27.4515545,15.969567 0.155546,-0.09043 V 32.161861 l -0.07752,-0.04496 0.07752,-0.04548 z" /><path
         id="rect14-2-4"
         style="fill:none;fill-rule:evenodd;stroke:#6c5353;stroke-width:1.157;stroke-linecap:round;stroke-linejoin:bevel;stroke-dasharray:none;stroke-opacity:1;paint-order:markers stroke fill"
         d="M 31.922599,0.17725733 4.4710445,16.146309 l 0.07803,0.04547 -0.07803,0.04547 v 31.757752 l 0.07752,0.04547 -0.07752,0.04496 27.4515555,15.969567 0.155546,-0.09043 0.155546,0.09095 27.451554,-15.969568 -0.07803,-0.04548 0.07803,-0.04547 V 16.237259 l -0.07752,-0.04496 0.07752,-0.04496 -27.451554,-15.97008467 -0.155546,0.0904338 z"
         sodipodi:nodetypes="ccccccccccccccccccc" /></g><path
       style="fill:#ffffff;stroke-width:0.405839"
       d="m 44.35708,54.373762 c -2.51087,0.553205 -4.750131,0.16738 -6.502608,-1.120405 -1.701207,-1.250108 -2.696111,-2.886772 -3.354933,-5.519017 -0.260699,-1.041594 -0.365099,-3.886216 -0.191693,-5.223122 0.369323,-2.847372 1.489299,-5.912134 3.136507,-8.582911 2.35167,-3.812985 5.300956,-6.481264 8.653182,-7.828709 3.359159,-1.350233 6.357301,-1.040973 8.668808,0.894189 0.932301,0.780511 1.403714,1.398022 2.024849,2.652389 0.907214,1.832092 1.271722,3.867699 1.156801,6.460194 -0.112123,2.529368 -0.78322,5.05395 -2.087551,7.853094 -0.553037,1.186841 -2.254028,3.809208 -3.146227,4.850443 -2.475171,2.888638 -5.571636,4.950141 -8.357135,5.563855 z m -1.587099,-6.76179 c 4.706911,-3.98985 5.941929,-5.073612 6.175051,-5.418783 0.309306,-0.457967 0.34346,-0.559997 1.38061,-4.124346 0.441238,-1.516392 1.002087,-3.43736 1.24633,-4.268814 0.244244,-0.831459 0.443861,-1.631626 0.443594,-1.778152 -9.02e-4,-0.489618 -0.294505,-0.843117 -0.74264,-0.894064 l -0.429668,-0.04884 -1.676679,1.420518 c -4.933779,4.180005 -5.750662,4.909919 -6.002953,5.363862 -0.136751,0.246051 -0.424869,1.055748 -0.640264,1.799325 -0.215395,0.743575 -0.641984,2.19683 -0.947976,3.229456 0,0 -0.932616,3.147319 -1.212682,4.17028 -0.253287,0.925166 -0.205349,1.287542 0.212545,1.606704 0.403144,0.307898 0.822871,0.105726 2.19473,-1.057139 z m 2.830281,-5.871043 c -1.509166,-0.01 -1.105136,-2.816296 0.498262,-3.460789 1.515724,-0.609254 2.00112,1.609515 0.641919,2.934247 -0.392346,0.382398 -0.71065,0.529391 -1.140181,0.526539 z"
       id="path15"
       sodipodi:nodetypes="sssssssssssssssssscsssssssssssss" /></g></svg>
