<?xml version="1.0" encoding="UTF-8" standalone="no"?>
<!-- Created with Inkscape (http://www.inkscape.org/) -->

<svg
   width="64mm"
   height="64mm"
   viewBox="0 0 64 64"
   version="1.1"
   id="svg1"
   inkscape:version="1.4 (e7c3feb100, 2024-10-09)"
   sodipodi:docname="palo_user.svg"
   xml:space="preserve"
   inkscape:export-filename="palo_connect_80.png"
   inkscape:export-xdpi="31.75"
   inkscape:export-ydpi="31.75"
   xmlns:inkscape="http://www.inkscape.org/namespaces/inkscape"
   xmlns:sodipodi="http://sodipodi.sourceforge.net/DTD/sodipodi-0.dtd"
   xmlns="http://www.w3.org/2000/svg"
   xmlns:svg="http://www.w3.org/2000/svg"><sodipodi:namedview
     id="namedview1"
     pagecolor="#ffffff"
     bordercolor="#666666"
     borderopacity="1.0"
     inkscape:showpageshadow="2"
     inkscape:pageopacity="0.0"
     inkscape:pagecheckerboard="0"
     inkscape:deskcolor="#d1d1d1"
     inkscape:document-units="mm"
     inkscape:zoom="4.0179475"
     inkscape:cx="118.84177"
     inkscape:cy="151.69437"
     inkscape:window-width="1920"
     inkscape:window-height="1012"
     inkscape:window-x="0"
     inkscape:window-y="0"
     inkscape:window-maximized="1"
     inkscape:current-layer="layer1" /><defs
     id="defs1"><inkscape:perspective
       sodipodi:type="inkscape:persp3d"
       inkscape:vp_x="0 : 0 : 1"
       inkscape:vp_y="0 : 1000 : 0"
       inkscape:vp_z="63.999998 : 0 : 1"
       inkscape:persp3d-origin="47.26893 : 3.0435153 : 1"
       id="perspective1" /></defs><g
     inkscape:label="Calque 1"
     inkscape:groupmode="layer"
     id="layer1"><g
       id="g15"
       transform="matrix(0.96844444,0,0,0.96844444,1.012244,1.0134502)"><path
         id="rect14-2"
         style="fill:#916f6f;fill-rule:evenodd;stroke-width:0.25676;stroke-linecap:round;stroke-linejoin:bevel;stroke-opacity:0.5;paint-order:markers stroke fill"
         d="M 31.844568,0.13229167 4.3930135,16.101343 31.844568,32.071427 32.000114,31.980477 32.15566,32.071427 59.607214,16.102376 32.15566,0.13229167 32.000114,0.22272542 Z" /><path
         id="rect14-2-7"
         style="fill:#6c5353;fill-rule:evenodd;stroke-width:0.256759;stroke-linecap:round;stroke-linejoin:bevel;stroke-opacity:0.5;paint-order:markers stroke fill"
         d="m 59.451152,16.10186 -27.451038,15.969051 0.07803,0.04547 -0.07803,0.04548 v 31.757752 l 0.155546,0.09095 27.451554,-15.969568 -0.07803,-0.04548 0.07803,-0.04547 V 16.192293 Z" /><path
         id="rect14-2-4-1"
         style="fill:#c8b7b7;fill-rule:evenodd;stroke-width:0.256759;stroke-linecap:round;stroke-linejoin:bevel;stroke-opacity:0.5;paint-order:markers stroke fill"
         d="m 4.5485596,16.10186 -0.1555461,0.09043 v 31.757752 l 0.077515,0.04547 -0.077515,0.04496 27.4515545,15.969567 0.155546,-0.09043 V 32.161861 l -0.07752,-0.04496 0.07752,-0.04548 z" /><path
         id="rect14-2-4"
         style="fill:none;fill-rule:evenodd;stroke:#6c5353;stroke-width:1.157;stroke-linecap:round;stroke-linejoin:bevel;stroke-dasharray:none;stroke-opacity:1;paint-order:markers stroke fill"
         d="M 31.922599,0.17725733 4.4710445,16.146309 l 0.07803,0.04547 -0.07803,0.04547 v 31.757752 l 0.07752,0.04547 -0.07752,0.04496 27.4515555,15.969567 0.155546,-0.09043 0.155546,0.09095 27.451554,-15.969568 -0.07803,-0.04548 0.07803,-0.04547 V 16.237259 l -0.07752,-0.04496 0.07752,-0.04496 -27.451554,-15.97008467 -0.155546,0.0904338 z"
         sodipodi:nodetypes="ccccccccccccccccccc" /></g><path
       style="fill:#ffffff;stroke-width:0.359647"
       d="m 36.05918,60.094023 c -0.297978,0.03351 -0.554736,-0.142759 -0.754629,-0.518085 -0.3264,-0.612857 0.127617,-3.390377 0.88514,-5.414971 1.369039,-3.658964 3.736397,-6.944035 6.7681,-9.391777 1.036656,-0.836977 5.761735,-3.560932 6.807953,-3.924659 3.101539,-1.078426 5.441953,-0.520831 6.793808,1.618599 0.551382,0.87261 0.824025,1.837378 0.925846,3.276163 0.05063,0.71542 0.03433,0.855427 -0.157848,1.355332 -0.11787,0.306619 -0.332057,0.715889 -0.47597,0.909491 -0.260021,0.349792 -0.325101,0.38869 -10.380732,6.204524 -8.463827,4.895185 -10.166933,5.85789 -10.411668,5.885435 z m 9.051339,-20.108708 c -2.102029,0.796307 -4.146823,0.07231 -4.807674,-1.702242 -0.452672,-1.21554 -0.471221,-2.560044 -0.05757,-4.173197 0.673112,-2.625007 2.322854,-5.21744 4.544123,-7.140716 1.017752,-0.881215 2.545494,-1.703014 3.631326,-1.953351 1.563899,-0.360555 2.935218,0.12366 3.674764,1.297568 0.540994,0.85874 0.661213,1.354274 0.658269,2.713333 -0.0021,0.905089 -0.04392,1.281115 -0.21471,1.924248 -0.703574,2.649453 -2.131751,5.00483 -4.253722,7.015317 -0.600226,0.568693 -2.447648,1.743573 -3.174805,2.01904 z"
       id="path1" /></g></svg>
