<?xml version="1.0" encoding="UTF-8" standalone="no"?>
<!-- Created with Inkscape (http://www.inkscape.org/) -->

<svg
   width="64mm"
   height="64mm"
   viewBox="0 0 64 64"
   version="1.1"
   id="svg1"
   inkscape:version="1.4 (e7c3feb100, 2024-10-09)"
   sodipodi:docname="palo_connect.svg"
   xml:space="preserve"
   xmlns:inkscape="http://www.inkscape.org/namespaces/inkscape"
   xmlns:sodipodi="http://sodipodi.sourceforge.net/DTD/sodipodi-0.dtd"
   xmlns="http://www.w3.org/2000/svg"
   xmlns:svg="http://www.w3.org/2000/svg"><sodipodi:namedview
     id="namedview1"
     pagecolor="#ffffff"
     bordercolor="#666666"
     borderopacity="1.0"
     inkscape:showpageshadow="2"
     inkscape:pageopacity="0.0"
     inkscape:pagecheckerboard="0"
     inkscape:deskcolor="#d1d1d1"
     inkscape:document-units="mm"
     inkscape:zoom="1.5434815"
     inkscape:cx="-17.816864"
     inkscape:cy="225.78826"
     inkscape:window-width="1920"
     inkscape:window-height="1012"
     inkscape:window-x="0"
     inkscape:window-y="0"
     inkscape:window-maximized="1"
     inkscape:current-layer="layer1" /><defs
     id="defs1"><inkscape:perspective
       sodipodi:type="inkscape:persp3d"
       inkscape:vp_x="0 : 0 : 1"
       inkscape:vp_y="0 : 1000 : 0"
       inkscape:vp_z="63.999998 : 0 : 1"
       inkscape:persp3d-origin="47.26893 : 3.0435153 : 1"
       id="perspective1" /></defs><g
     inkscape:label="Calque 1"
     inkscape:groupmode="layer"
     id="layer1"><g
       id="g15"
       transform="matrix(0.96844444,0,0,0.96844444,1.012244,1.0134502)"><path
         id="rect14-2"
         style="fill:#916f6f;fill-rule:evenodd;stroke-width:0.25676;stroke-linecap:round;stroke-linejoin:bevel;stroke-opacity:0.5;paint-order:markers stroke fill"
         d="M 31.844568,0.13229167 4.3930135,16.101343 31.844568,32.071427 32.000114,31.980477 32.15566,32.071427 59.607214,16.102376 32.15566,0.13229167 32.000114,0.22272542 Z" /><path
         id="rect14-2-7"
         style="fill:#6c5353;fill-rule:evenodd;stroke-width:0.256759;stroke-linecap:round;stroke-linejoin:bevel;stroke-opacity:0.5;paint-order:markers stroke fill"
         d="m 59.451152,16.10186 -27.451038,15.969051 0.07803,0.04547 -0.07803,0.04548 v 31.757752 l 0.155546,0.09095 27.451554,-15.969568 -0.07803,-0.04548 0.07803,-0.04547 V 16.192293 Z" /><path
         id="rect14-2-4-1"
         style="fill:#c8b7b7;fill-rule:evenodd;stroke-width:0.256759;stroke-linecap:round;stroke-linejoin:bevel;stroke-opacity:0.5;paint-order:markers stroke fill"
         d="m 4.5485596,16.10186 -0.1555461,0.09043 v 31.757752 l 0.077515,0.04547 -0.077515,0.04496 27.4515545,15.969567 0.155546,-0.09043 V 32.161861 l -0.07752,-0.04496 0.07752,-0.04548 z" /><path
         id="rect14-2-4"
         style="fill:none;fill-rule:evenodd;stroke:#6c5353;stroke-width:1.157;stroke-linecap:round;stroke-linejoin:bevel;stroke-dasharray:none;stroke-opacity:1;paint-order:markers stroke fill"
         d="M 31.922599,0.17725733 4.4710445,16.146309 l 0.07803,0.04547 -0.07803,0.04547 v 31.757752 l 0.07752,0.04547 -0.07752,0.04496 27.4515555,15.969567 0.155546,-0.09043 0.155546,0.09095 27.451554,-15.969568 -0.07803,-0.04548 0.07803,-0.04547 V 16.237259 l -0.07752,-0.04496 0.07752,-0.04496 -27.451554,-15.97008467 -0.155546,0.0904338 z"
         sodipodi:nodetypes="ccccccccccccccccccc" /></g><path
       style="fill:#ffffff;stroke-width:0.402218"
       d="m 45.406364,54.649352 c -0.710621,0.01805 -0.763312,-0.137341 -0.819977,-2.41829 l -0.0508,-2.044745 -0.71116,0.222341 c -3.180828,0.994454 -5.610011,-0.181934 -6.558694,-3.176198 -0.189701,-0.598741 -0.233018,-1.085616 -0.286601,-3.221369 l -0.06313,-2.516021 -0.39964,0.08218 c -0.717153,0.147471 -1.07394,-0.182798 -1.072809,-0.993074 7.58e-4,-0.544465 0.23826,-1.150859 0.674048,-1.721009 0.253569,-0.331748 0.494358,-0.499348 1.89722,-1.320543 0.911929,-0.533818 1.691772,-1.04018 1.803302,-1.170908 0.18596,-0.217973 0.196529,-0.375252 0.196888,-2.929905 3.5e-4,-2.480816 0.01645,-2.737885 0.198696,-3.172446 0.563546,-1.343759 2.048057,-2.167699 2.557882,-1.419686 0.169382,0.248515 0.18928,0.555811 0.18928,2.923056 0,2.501287 0.01069,2.645372 0.19651,2.645802 0.121349,2.81e-4 1.231359,-0.604842 2.90212,-1.582094 1.670762,-0.977252 2.78077,-1.67065 2.902119,-1.812888 0.185796,-0.217779 0.196518,-0.374479 0.196668,-2.874037 1.37e-4,-2.295044 0.02358,-2.708358 0.17779,-3.133969 0.499571,-1.378827 2.05057,-2.289354 2.579011,-1.514032 0.169644,0.248904 0.189278,0.556954 0.189278,2.969715 v 2.692004 l 0.228588,-0.06649 c 0.125723,-0.03657 0.937207,-0.480097 1.8033,-0.985621 1.787868,-1.043559 2.12028,-1.121876 2.393583,-0.564012 0.404366,0.825386 -0.01286,1.979239 -1.098254,3.037266 l -0.279384,0.27234 -0.0013,2.149437 c -0.0011,1.663639 -0.04445,2.403849 -0.192079,3.275116 -0.713915,4.213164 -3.437261,8.849701 -6.865844,11.689195 l -0.509524,0.421981 -0.0508,2.109748 c -0.04586,1.904563 -0.07126,2.152274 -0.261208,2.547083 -0.258907,0.538145 -0.805199,1.175062 -1.211911,1.412953 -0.16763,0.09805 -0.461544,0.182254 -0.653142,0.187124 z"
       id="path15"
       sodipodi:nodetypes="cscssscscsssssssssssssscscsscssscssscc" /></g></svg>
