<?xml version="1.0" encoding="UTF-8" standalone="no"?>
<!-- Created with Inkscape (http://www.inkscape.org/) -->

<svg
   width="1000"
   height="1000"
   viewBox="0 0 264.58333 264.58333"
   version="1.1"
   id="svg5"
   inkscape:version="1.2.2 (b0a8486541, 2022-12-01)"
   sodipodi:docname="connection.svg"
   xml:space="preserve"
   inkscape:export-filename="connection-80.png"
   inkscape:export-xdpi="7.6799998"
   inkscape:export-ydpi="7.6799998"
   xmlns:inkscape="http://www.inkscape.org/namespaces/inkscape"
   xmlns:sodipodi="http://sodipodi.sourceforge.net/DTD/sodipodi-0.dtd"
   xmlns="http://www.w3.org/2000/svg"
   xmlns:svg="http://www.w3.org/2000/svg"><sodipodi:namedview
     id="namedview7"
     pagecolor="#ffffff"
     bordercolor="#000000"
     borderopacity="0.25"
     inkscape:showpageshadow="2"
     inkscape:pageopacity="0.0"
     inkscape:pagecheckerboard="0"
     inkscape:deskcolor="#d1d1d1"
     inkscape:document-units="mm"
     showgrid="false"
     inkscape:zoom="0.46788977"
     inkscape:cx="578.12762"
     inkscape:cy="630.49038"
     inkscape:window-width="2560"
     inkscape:window-height="1343"
     inkscape:window-x="0"
     inkscape:window-y="0"
     inkscape:window-maximized="1"
     inkscape:current-layer="layer1" /><defs
     id="defs2"><inkscape:perspective
       sodipodi:type="inkscape:persp3d"
       inkscape:vp_x="17.371358 : 215.46542 : 1"
       inkscape:vp_y="0 : 1000 : 0"
       inkscape:vp_z="230.7987 : 208.67558 : 1"
       inkscape:persp3d-origin="132.29166 : 88.194443 : 1"
       id="perspective240" /></defs><g
     inkscape:label="Calque 1"
     inkscape:groupmode="layer"
     id="layer1"><path
       id="rect542-6-7"
       style="fill:#483737;stroke:none;stroke-width:0.316"
       inkscape:transform-center-x="-4.0016313"
       inkscape:transform-center-y="-30.828118"
       d="M 11.720215 66.145833 L 11.720215 198.4375 L 132.29167 264.58333 L 132.29167 132.29167 L 11.720215 66.145833 z " /><path
       id="rect542-6-7-9"
       style="fill:#6c5353;stroke:none;stroke-width:0.316001"
       inkscape:transform-center-x="-4.0016313"
       inkscape:transform-center-y="-30.828118"
       d="M 132.29167 0 L 11.720215 66.145833 L 132.29167 132.29167 L 252.86312 66.145833 L 132.29167 0 z " /><path
       id="rect542-6-7-6"
       style="fill:#241c1c;stroke:none;stroke-width:0.316001"
       inkscape:transform-center-x="-4.0016313"
       inkscape:transform-center-y="-30.828118"
       d="M 252.86312 66.145833 L 132.29167 132.29167 L 132.29167 264.58333 L 252.86312 198.4375 L 252.86312 66.145833 z " /><path
       style="fill:#ffffff;stroke-width:0.264583"
       d="m 130.74403,210.70731 c -1.65349,-0.26796 -3.77884,-1.313 -4.91529,-2.41685 -0.49271,-0.47857 -1.26416,-1.64404 -1.71435,-2.58992 l -0.81852,-1.71979 -0.0745,-10.87951 -0.0745,-10.87952 -2.30676,-0.45079 c -14.01552,-2.73897 -27.25239,-11.79265 -35.0305,-23.95997 -4.78012,-7.47757 -7.28864,-14.31382 -8.53722,-23.26577 -0.31878,-2.28555 -0.41092,-5.46445 -0.41092,-14.17683 v -11.23065 l -0.7276,-0.14155 c -4.35336,-0.8469 -6.08383,-2.02496 -7.57988,-5.1602 -0.71905,-1.50687 -0.82065,-1.99891 -0.82065,-3.974315 0,-2.015723 0.0925,-2.442311 0.87282,-4.027464 1.05397,-2.140916 1.98455,-3.116257 3.83882,-4.023468 2.15403,-1.05387 3.83192,-1.200735 13.73671,-1.202389 l 9.18793,-0.0015 0.0725,-15.021017 0.0725,-15.021017 0.87282,-1.772592 c 1.05405,-2.140649 1.9847,-3.115982 3.83882,-4.023118 2.76369,-1.352147 5.80222,-1.353363 8.56139,-0.0034 1.86114,0.910572 2.79081,1.883919 3.84583,4.026544 l 0.87281,1.772592 0.0725,15.021017 0.0725,15.021017 h 18.64044 18.64044 l 0.0725,-15.021017 0.0725,-15.021017 0.87281,-1.772592 c 1.05405,-2.140649 1.9847,-3.115982 3.83882,-4.023118 2.76369,-1.352147 5.80222,-1.353363 8.56139,-0.0034 1.86114,0.910572 2.79081,1.883919 3.84583,4.026544 l 0.87281,1.772592 0.0725,15.021017 0.0725,15.021018 9.18793,0.0016 c 9.90479,0.0016 11.58267,0.148519 13.73671,1.202389 1.85426,0.907211 2.78485,1.882552 3.83882,4.023468 0.78036,1.585153 0.87281,2.011741 0.87281,4.027464 0,1.975402 -0.1016,2.467442 -0.82064,3.974312 -1.49606,3.13524 -3.22653,4.31331 -7.57988,5.1602 l -0.7276,0.14155 v 11.23065 c 0,12.0309 -0.1588,14.19869 -1.46069,19.94062 -4.31261,19.02048 -19.02987,34.65825 -37.96223,40.33663 -1.23693,0.37099 -3.29076,0.87813 -4.56406,1.12698 l -2.31511,0.45245 -0.006,10.61327 c -0.006,10.57807 -0.008,10.61838 -0.63858,12.15102 -0.87661,2.1319 -1.63043,3.15029 -3.04001,4.10699 -2.1231,1.44098 -4.56612,2.00395 -6.99093,1.61099 z"
       id="path1775" /></g></svg>
