<?xml version="1.0" encoding="UTF-8" standalone="no"?>
<!-- Created with Inkscape (http://www.inkscape.org/) -->

<svg
   width="1000"
   height="1000"
   viewBox="0 0 264.58333 264.58333"
   version="1.1"
   id="svg5"
   inkscape:version="1.2.2 (b0a8486541, 2022-12-01)"
   sodipodi:docname="exploration.svg"
   xml:space="preserve"
   inkscape:export-filename="exploration-16.png"
   inkscape:export-xdpi="1.536"
   inkscape:export-ydpi="1.536"
   xmlns:inkscape="http://www.inkscape.org/namespaces/inkscape"
   xmlns:sodipodi="http://sodipodi.sourceforge.net/DTD/sodipodi-0.dtd"
   xmlns="http://www.w3.org/2000/svg"
   xmlns:svg="http://www.w3.org/2000/svg"><sodipodi:namedview
     id="namedview7"
     pagecolor="#ffffff"
     bordercolor="#000000"
     borderopacity="0.25"
     inkscape:showpageshadow="2"
     inkscape:pageopacity="0.0"
     inkscape:pagecheckerboard="0"
     inkscape:deskcolor="#d1d1d1"
     inkscape:document-units="mm"
     showgrid="false"
     inkscape:zoom="0.46788977"
     inkscape:cx="578.12762"
     inkscape:cy="630.49038"
     inkscape:window-width="2560"
     inkscape:window-height="1343"
     inkscape:window-x="0"
     inkscape:window-y="0"
     inkscape:window-maximized="1"
     inkscape:current-layer="layer1" /><defs
     id="defs2"><inkscape:perspective
       sodipodi:type="inkscape:persp3d"
       inkscape:vp_x="17.371358 : 215.46542 : 1"
       inkscape:vp_y="0 : 1000 : 0"
       inkscape:vp_z="230.7987 : 208.67558 : 1"
       inkscape:persp3d-origin="132.29166 : 88.194443 : 1"
       id="perspective240" /></defs><g
     inkscape:label="Calque 1"
     inkscape:groupmode="layer"
     id="layer1"><path
       id="rect542-6-7"
       style="fill:#483737;stroke:none;stroke-width:0.316"
       inkscape:transform-center-x="-4.0016313"
       inkscape:transform-center-y="-30.828118"
       d="M 11.720215 66.145833 L 11.720215 198.4375 L 132.29167 264.58333 L 132.29167 132.29167 L 11.720215 66.145833 z " /><path
       id="rect542-6-7-9"
       style="fill:#6c5353;stroke:none;stroke-width:0.316001"
       inkscape:transform-center-x="-4.0016313"
       inkscape:transform-center-y="-30.828118"
       d="M 132.29167 0 L 11.720215 66.145833 L 132.29167 132.29167 L 252.86312 66.145833 L 132.29167 0 z " /><path
       id="rect542-6-7-6"
       style="fill:#241c1c;stroke:none;stroke-width:0.316001"
       inkscape:transform-center-x="-4.0016313"
       inkscape:transform-center-y="-30.828118"
       d="M 252.86312 66.145833 L 132.29167 132.29167 L 132.29167 264.58333 L 252.86312 198.4375 L 252.86312 66.145833 z " /><path
       style="fill:#ffffff;stroke-width:0.325612"
       d="m 198.30252,210.62383 c -3.02399,-0.62747 -3.72057,-1.26487 -23.6722,-21.66127 l -19.5176,-19.95268 -1.42004,0.98997 c -18.00908,12.5549 -41.91566,14.79221 -61.587642,5.76368 -11.25875,-5.16725 -19.89048,-12.56862 -26.61587,-22.82206 -4.08744,-6.23163 -6.88971,-12.57709 -8.61851,-19.51565 -6.58191,-26.41678 3.72735,-53.78773 25.97218,-68.9558 19.216492,-13.10315 44.658992,-14.235531 65.210042,-2.902343 15.10371,8.329163 26.48167,23.191713 30.69259,40.092413 2.40288,9.644 2.59116,19.84312 0.54586,29.56811 -1.40797,6.6947 -4.89873,15.08584 -8.84109,21.25253 l -1.83411,2.86889 19.74999,19.85477 c 15.67081,15.75393 19.91095,20.19326 20.52926,21.4936 0.6354,1.33625 0.77928,2.15314 0.77928,4.42481 0,3.14917 -0.71075,5.09455 -2.53755,6.94558 -2.02114,2.04795 -5.88879,3.1667 -8.83459,2.55545 z m -73.71169,-49.33098 c 18.60233,-3.03312 32.97462,-17.25381 36.26611,-35.88356 0.3587,-2.03026 0.54877,-4.82455 0.54622,-8.03021 -0.009,-12.22179 -4.31281,-22.73943 -12.78242,-31.24324 -14.81254,-14.87238 -37.76573,-17.11521 -55.202652,-5.39405 -3.2469,2.18259 -8.4593,7.17549 -10.68959,10.23946 -5.71413,7.85007 -8.5076,16.50978 -8.5155,26.39783 -0.002,3.20566 0.1875,5.99995 0.54621,8.03021 3.26038,18.45375 17.57843,32.7341 35.960442,35.8658 3.56443,0.60726 10.20358,0.61577 13.87118,0.0177 z"
       id="path1818" /></g></svg>
