<?xml version="1.0" encoding="UTF-8" standalone="no"?>
<!-- Created with Inkscape (http://www.inkscape.org/) -->

<svg
   width="1000"
   height="1000"
   viewBox="0 0 264.58333 264.58333"
   version="1.1"
   id="svg5"
   inkscape:version="1.2.2 (b0a8486541, 2022-12-01)"
   sodipodi:docname="palo_snapshot.svg"
   xml:space="preserve"
   inkscape:export-filename="palo_explore_80.png"
   inkscape:export-xdpi="7.6799998"
   inkscape:export-ydpi="7.6799998"
   xmlns:inkscape="http://www.inkscape.org/namespaces/inkscape"
   xmlns:sodipodi="http://sodipodi.sourceforge.net/DTD/sodipodi-0.dtd"
   xmlns="http://www.w3.org/2000/svg"
   xmlns:svg="http://www.w3.org/2000/svg"><sodipodi:namedview
     id="namedview7"
     pagecolor="#ffffff"
     bordercolor="#000000"
     borderopacity="0.25"
     inkscape:showpageshadow="2"
     inkscape:pageopacity="0.0"
     inkscape:pagecheckerboard="0"
     inkscape:deskcolor="#d1d1d1"
     inkscape:document-units="mm"
     showgrid="false"
     inkscape:zoom="0.46788977"
     inkscape:cx="153.8824"
     inkscape:cy="630.49038"
     inkscape:window-width="2560"
     inkscape:window-height="1343"
     inkscape:window-x="0"
     inkscape:window-y="0"
     inkscape:window-maximized="1"
     inkscape:current-layer="layer1" /><defs
     id="defs2"><inkscape:perspective
       sodipodi:type="inkscape:persp3d"
       inkscape:vp_x="17.371358 : 215.46542 : 1"
       inkscape:vp_y="0 : 1000 : 0"
       inkscape:vp_z="230.7987 : 208.67558 : 1"
       inkscape:persp3d-origin="132.29166 : 88.194443 : 1"
       id="perspective240" /></defs><g
     inkscape:label="Calque 1"
     inkscape:groupmode="layer"
     id="layer1"><g
       id="g1732"
       style="stroke:none"><path
         id="rect542-6-7"
         style="fill:#483737;stroke:none;stroke-width:0.316"
         inkscape:transform-center-x="-4.0016313"
         inkscape:transform-center-y="-30.828118"
         d="m 11.720343,66.14578 -4e-6,132.29166 120.571271,-66.14583 z" /><path
         id="rect542-6-7-9"
         style="fill:#6c5353;stroke:none;stroke-width:0.316001"
         inkscape:transform-center-x="-4.0016313"
         inkscape:transform-center-y="-30.828118"
         d="M 132.29172,7.502268e-6 V 132.29166 L 252.863,66.145834 Z" /><path
         id="rect542-6-7-6"
         style="fill:#241c1c;stroke:none;stroke-width:0.316001"
         inkscape:transform-center-x="-4.0016313"
         inkscape:transform-center-y="-30.828118"
         d="M 132.29172,132.29166 V 264.58333 L 252.863,198.43751 Z" /><path
         id="rect542-6-7-3"
         style="fill:#241c1c;stroke:none;stroke-width:0.316001"
         inkscape:transform-center-x="4.0016312"
         inkscape:transform-center-y="-30.828118"
         d="M 252.863,66.145832 V 198.4375 L 132.29172,132.29167 Z" /><path
         id="rect542-6-7-3-1"
         style="fill:#6c5353;stroke:none;stroke-width:0.316001"
         inkscape:transform-center-x="4.0016312"
         inkscape:transform-center-y="-30.828118"
         d="M 132.29172,2.4745548e-6 V 132.29166 L 11.720438,66.145841 Z" /><path
         id="rect542-6-7-3-2"
         style="fill:#483737;stroke:none;stroke-width:0.316001"
         inkscape:transform-center-x="4.0016312"
         inkscape:transform-center-y="-30.828118"
         d="M 132.29161,132.2916 V 264.58326 L 11.720338,198.43744 Z" /></g><path
       style="fill:#ffffff;stroke-width:0.238147"
       d="m 62.139274,201.38356 c -4.403156,-0.87583 -8.591082,-4.23497 -10.630383,-8.52664 -1.554864,-3.27215 -1.451103,0.58055 -1.441768,-53.53699 0.0099,-54.631809 -0.122756,-50.402297 1.687158,-53.983393 1.548322,-3.06351 4.783131,-6.076203 7.830283,-7.292635 2.624172,-1.047568 2.971019,-1.067037 19.170926,-1.075919 l 15.479634,-0.009 1.985239,-5.536933 c 1.272825,-3.549981 2.383812,-6.212593 3.095924,-7.419755 2.460533,-4.171057 6.603583,-7.061259 11.125703,-7.761282 1.11917,-0.17325 9.12623,-0.233843 24.75462,-0.187335 l 23.10037,0.06876 1.56513,0.531628 c 1.97185,0.669794 4.14702,2.065888 5.27888,3.388219 1.3792,1.611291 2.56876,4.190988 4.97182,10.781858 l 2.23489,6.129747 15.47964,0.01104 c 16.19631,0.01154 16.5456,0.03124 19.17094,1.077963 3.25795,1.299015 6.31038,4.209645 7.94279,7.573859 0.58126,1.19791 1.18016,2.821006 1.33086,3.606893 0.20253,1.056225 0.25565,14.316845 0.20358,50.844625 l -0.0699,49.41574 -0.55196,1.54796 c -1.40458,3.93936 -4.32976,7.34999 -7.72265,9.00432 -3.82112,1.86313 2.74454,1.71498 -74.88611,1.68997 -57.240833,-0.0184 -69.776601,-0.0793 -71.105139,-0.34319 z M 201.04456,139.35432 V 92.439137 l -19.70677,-0.004 -19.70674,-0.004 -3.89371,-10.474762 -3.89369,-10.474754 H 133.2914 112.73917 l -3.89368,10.474754 -3.89371,10.474762 -19.706749,0.004 -19.706755,0.004 v 46.915183 46.91517 h 67.753124 67.75316 z m -72.39705,39.03036 c -8.82875,-0.99994 -16.34481,-4.6201 -22.83187,-10.99708 -4.3945,-4.31992 -7.238811,-8.76573 -9.32657,-14.57792 -2.931804,-8.16196 -2.869823,-18.40892 0.162401,-26.85072 4.084599,-11.37167 14.549619,-20.8974 26.399569,-24.03013 6.01285,-1.58958 14.46791,-1.58958 20.48076,0 6.40751,1.69393 12.55883,5.28111 17.38887,10.14042 7.58261,7.62854 11.31753,16.74191 11.30359,27.58115 -0.0137,11.08035 -3.81322,20.21819 -11.5803,27.85448 -8.52539,8.38182 -19.90057,12.24977 -31.99645,10.8798 z m 7.73984,-15.47847 c 5.22654,-0.63784 9.50881,-2.74818 13.40143,-6.60433 2.09336,-2.07373 3.37193,-3.82646 4.63217,-6.34998 2.68255,-5.37148 3.0756,-12.16946 1.04829,-18.13006 -2.36823,-6.96276 -8.72799,-12.89043 -15.98596,-14.89975 -1.6413,-0.45439 -2.49892,-0.52743 -6.19188,-0.52743 -3.69292,0 -4.55052,0.0728 -6.19183,0.52743 -7.2607,2.01007 -13.61687,7.93437 -15.98593,14.89975 -1.61796,4.75689 -1.68632,10.65493 -0.17696,15.26399 1.82279,5.5662 6.52172,10.96136 11.87622,13.63591 4.03049,2.01322 8.75185,2.77302 13.57445,2.18447 z m -17.86114,-18.34739 c -1.16084,-0.42925 -2.23024,-1.35341 -2.80044,-2.42006 -0.44219,-0.82732 -0.52913,-1.34843 -0.50745,-3.04208 0.0719,-5.64062 2.64322,-10.43222 7.59458,-14.15441 2.81531,-2.11637 5.67082,-3.13911 9.41369,-3.3716 2.03641,-0.12647 2.37547,-0.0867 3.30463,0.38727 1.95378,0.99676 2.88037,2.49437 2.88037,4.65547 0,1.5425 -0.47093,2.71745 -1.50272,3.74923 -0.88774,0.88773 -1.83453,1.22072 -4.51867,1.58904 -2.23228,0.30631 -3.02712,0.67948 -4.53589,2.12945 -1.53402,1.47422 -2.03228,2.51865 -2.31909,4.86122 -0.132,1.07797 -0.30021,2.17425 -0.37379,2.43622 -0.26201,0.93287 -1.29813,2.18665 -2.24831,2.72067 -1.11674,0.62763 -3.3107,0.85748 -4.38691,0.45958 z"
       id="path1588" /></g></svg>
