<?xml version="1.0" encoding="UTF-8" standalone="no"?>
<!-- Created with Inkscape (http://www.inkscape.org/) -->

<svg
   width="1000"
   height="1000"
   viewBox="0 0 264.58333 264.58333"
   version="1.1"
   id="svg5"
   inkscape:version="1.2.2 (b0a8486541, 2022-12-01)"
   sodipodi:docname="palo_action.svg"
   xml:space="preserve"
   inkscape:export-filename="palo_action_16.png"
   inkscape:export-xdpi="1.536"
   inkscape:export-ydpi="1.536"
   xmlns:inkscape="http://www.inkscape.org/namespaces/inkscape"
   xmlns:sodipodi="http://sodipodi.sourceforge.net/DTD/sodipodi-0.dtd"
   xmlns="http://www.w3.org/2000/svg"
   xmlns:svg="http://www.w3.org/2000/svg"><sodipodi:namedview
     id="namedview7"
     pagecolor="#ffffff"
     bordercolor="#000000"
     borderopacity="0.25"
     inkscape:showpageshadow="2"
     inkscape:pageopacity="0.0"
     inkscape:pagecheckerboard="0"
     inkscape:deskcolor="#d1d1d1"
     inkscape:document-units="mm"
     showgrid="false"
     inkscape:zoom="0.46788977"
     inkscape:cx="281.0491"
     inkscape:cy="630.49038"
     inkscape:window-width="2560"
     inkscape:window-height="1343"
     inkscape:window-x="0"
     inkscape:window-y="0"
     inkscape:window-maximized="1"
     inkscape:current-layer="layer1" /><defs
     id="defs2"><inkscape:perspective
       sodipodi:type="inkscape:persp3d"
       inkscape:vp_x="17.371358 : 215.46542 : 1"
       inkscape:vp_y="0 : 1000 : 0"
       inkscape:vp_z="230.7987 : 208.67558 : 1"
       inkscape:persp3d-origin="132.29166 : 88.194443 : 1"
       id="perspective240" /></defs><g
     inkscape:label="Calque 1"
     inkscape:groupmode="layer"
     id="layer1"><path
       id="rect542-6-7"
       style="fill:#483737;stroke:none;stroke-width:0.316"
       inkscape:transform-center-x="-4.0016313"
       inkscape:transform-center-y="-30.828118"
       d="M 11.720215 66.145833 L 11.720215 198.4375 L 132.29167 264.58333 L 132.29167 132.29167 L 11.720215 66.145833 z " /><path
       id="rect542-6-7-9"
       style="fill:#6c5353;stroke:none;stroke-width:0.316001"
       inkscape:transform-center-x="-4.0016313"
       inkscape:transform-center-y="-30.828118"
       d="M 132.29167 0 L 11.720215 66.145833 L 132.29167 132.29167 L 252.86312 66.145833 L 132.29167 0 z " /><path
       id="rect542-6-7-6"
       style="fill:#241c1c;stroke:none;stroke-width:0.316001"
       inkscape:transform-center-x="-4.0016313"
       inkscape:transform-center-y="-30.828118"
       d="M 252.86312 66.145833 L 132.29167 132.29167 L 132.29167 264.58333 L 252.86312 198.4375 L 252.86312 66.145833 z " /><path
       style="fill:#ffffff;stroke-width:0.306467"
       d="m 115.18427,211.64053 c 0.11924,-0.53503 2.74951,-14.25145 5.84504,-30.48091 3.09554,-16.22946 5.93128,-31.07675 6.30163,-32.99395 l 0.67337,-3.48586 h -23.85138 c -22.521365,0 -23.851537,-0.0316 -23.85434,-0.56746 -0.0044,-0.78845 8.392391,-85.354266 8.564175,-86.254462 l 0.139239,-0.729595 H 119.296 149.59001 l -0.17307,0.729595 c -0.0951,0.401278 -3.02301,11.34522 -6.50628,24.31987 l -6.33323,23.590272 h 23.85371 23.85371 l -0.01,7.37703 -0.01,7.37703 -27.67246,36.79567 c -42.79888,56.90905 -41.64978,55.40159 -41.40935,54.32277 z"
       id="path351" /></g></svg>
